<svg width="128" height="128" viewBox="0 0 128 128" xmlns="http://www.w3.org/2000/svg"><defs><linearGradient id="cup" x1="0" x2="0" y1="0" y2="1"><stop offset="0%" stop-color="#fde68a"/><stop offset="100%" stop-color="#f97316"/></linearGradient></defs><rect width="128" height="128" rx="26" fill="#0f172a"/><path d="M36 30h56v12H36z" fill="#cbd5f5"/><path d="M42 38h44l-6 56a8 8 0 0 1-8 7H56a8 8 0 0 1-8-7z" fill="url(#cup)"/><path d="M88 52h10a10 10 0 0 1 10 10v8a10 10 0 0 1-10 10H88" fill="none" stroke="#f8fafc" stroke-width="6" stroke-linecap="round"/><circle cx="64" cy="70" r="10" fill="#0f172a" opacity="0.2"/><path d="M52 24c0 6 12 6 12 12" stroke="#f97316" stroke-width="4" stroke-linecap="round" fill="none"/><path d="M72 20c0 8 10 8 10 14" stroke="#f97316" stroke-width="4" stroke-linecap="round" fill="none"/></svg>
